HIERARCHY
ROOT Hips
{
  OFFSET 0 0 0
  CHANNELS 6 Xposition Yposition Zposition Zrotation Yrotation Xrotation
  JOINT LeftThigh
  {
    OFFSET 8.409438 0 -5.917753
    CHANNELS 3 Zrotation Yrotation Xrotation
    JOINT LeftLeg
    {
      OFFSET 0 0 -42.358652
      CHANNELS 3 Zrotation Yrotation Xrotation
      JOINT LeftFoot
      {
        OFFSET 0 0 -39.357303
        CHANNELS 3 Zrotation Yrotation Xrotation
      }
    }
  }
  JOINT RightThigh
  {
    OFFSET -8.409438 0 -5.917753
    CHANNELS 3 Zrotation Yrotation Xrotation
    JOINT RightLeg
    {
      OFFSET 0 0 -42.358652
      CHANNELS 3 Zrotation Yrotation Xrotation
      JOINT RightFoot
      {
        OFFSET 0 0 -39.357303
        CHANNELS 3 Zrotation Yrotation Xrotation
      }
    }
  }
  JOINT SpineLow
  {
    OFFSET 0 0 4.719101
    CHANNELS 3 Zrotation Yrotation Xrotation
    JOINT SpineMid
    {
      OFFSET 0 0 12.899191
      CHANNELS 3 Zrotation Yrotation Xrotation
      JOINT Chest
      {
        OFFSET 0 0 12.899191
        CHANNELS 3 Zrotation Yrotation Xrotation
        JOINT LeftShoulder
        {
          OFFSET 7.550562 1.41573 9.438202
          CHANNELS 3 Zrotation Yrotation Xrotation
          JOINT LeftArm
          {
            OFFSET 9.155056 0 4.247191
            CHANNELS 3 Zrotation Yrotation Xrotation
            JOINT LeftForearm
            {
              OFFSET 0 0 25.771955
              CHANNELS 3 Zrotation Yrotation Xrotation
              JOINT LeftHand
              {
                OFFSET 0 0 25.197169
                CHANNELS 3 Zrotation Yrotation Xrotation
              }
            }
          }
        }
        JOINT RightShoulder
        {
          OFFSET -7.550562 1.41573 9.438202
          CHANNELS 3 Zrotation Yrotation Xrotation
          JOINT RightArm
          {
            OFFSET -9.155056 0 4.247191
            CHANNELS 3 Zrotation Yrotation Xrotation
            JOINT RightForearm
            {
              OFFSET 0 0 -25.771955
              CHANNELS 3 Zrotation Yrotation Xrotation
              JOINT RightHand
              {
                OFFSET 0 0 -25.197169
                CHANNELS 3 Zrotation Yrotation Xrotation
              }
            }
          }
        }
        JOINT Neck
        {
          OFFSET 0 0 15.101124
          CHANNELS 3 Zrotation Yrotation Xrotation
          JOINT Head
          {
            OFFSET 0 0 11.325843
            CHANNELS 3 Zrotation Yrotation Xrotation
            End Site
            {
              OFFSET 0 0 14.157303
            }
          }
        }
      }
    }
  }
}
MOTION
Frames: 11
Frame Time: 0.01
0.0  101.685394  0.0  -1.007315  -7.166542  -104.136961  22.755588  -22.030404  3.67876  -0.488599  4.933005  32.752101  9.83215  4.6973  5.859528  -16.266976  13.748862  -6.912026  7.250612  0.306001  25.681124  14.254321  5.573305  0.260016  1.691831  -0.033835  2.103843  4.617504  -0.239394  5.745064  4.617503  -0.239394  5.745064  -16.426863  5.455428  16.105009  -17.678428  77.555734  41.900736  -39.905862  25.426892  97.771858  90.481821  38.355184  -11.348261  9.757506  -23.476636  14.48213  111.442316  40.156316  32.598187  -21.454506  16.510109  -105.496885  86.630201  8.294091  33.691374  3.64239  -2.448308  -1.416174  2.725718  -1.844759  -1.047413  
0.0  101.685394  0.0  -0.789943  -10.347955  -104.337386  24.004516  -21.670353  4.805521  0.577302  4.046195  31.677915  9.928479  4.475944  5.905791  -14.707015  13.545957  -5.845397  7.135382  0.720661  23.592377  15.174054  4.875734  0.212776  1.543742  -0.086609  2.129043  4.208325  -0.3722  5.811326  4.208325  -0.3722  5.811327  -15.266664  3.500316  14.244947  -13.799688  74.438562  45.109541  -41.001958  17.018578  97.416579  98.943172  37.448258  -10.122904  8.816037  -22.746389  15.557421  109.19484  36.355561  32.705927  -19.545363  17.177946  -106.479708  85.669038  11.70885  36.10938  4.697476  -2.197709  -0.997427  3.519098  -1.656068  -0.73113  
0.0  101.685394  0.0  -0.675605  -13.054553  -104.480858  25.062027  -21.347309  5.7  1.696471  3.224919  30.721294  10.470803  4.25709  6.222988  -13.246143  13.241576  -4.718567  6.99984  1.200222  21.566426  15.93883  4.215063  0.060988  1.263301  -0.145106  2.12498  3.437362  -0.507075  5.799123  3.437362  -0.507075  5.799123  -13.608198  1.643881  12.916385  -12.531133  70.900395  44.599202  -42.311874  5.436401  95.963299  106.416151  34.500001  -11.069018  8.096818  -21.977263  16.905303  107.239726  32.242915  33.755587  -18.224162  16.888405  -106.769518  86.206473  14.870541  39.339574  5.904492  -1.975501  -0.49212  4.426343  -1.486546  -0.349999  
0.0  101.685394  0.0  -0.737724  -15.084539  -104.613269  25.909796  -21.307434  6.412505  2.618046  2.608217  29.828539  10.102259  4.107937  6.077448  -12.012709  12.821673  -3.437853  6.917356  1.631437  19.578273  16.44045  3.68147  -0.111334  0.777046  -0.20127  2.262206  2.103084  -0.622168  6.17648  2.103084  -0.622168  6.17648  -10.733483  -0.270642  11.101346  -10.752378  67.154328  44.416098  -43.303913  -9.271894  93.960598  111.017539  32.758245  -16.43595  9.059865  -21.374084  17.074497  104.225856  28.035926  35.418884  -17.461938  16.522682  -105.829363  87.551882  18.076743  42.580691  7.460151  -1.648217  -0.538847  5.593279  -1.242961  -0.384049  
0.0  101.685394  0.0  -1.126999  -16.351169  -104.639619  26.649791  -21.69507  6.878119  3.193743  2.22545  28.923699  9.851754  3.974577  6.038827  -11.111315  12.245029  -2.056838  6.840505  1.895051  17.597106  16.51383  3.222157  -0.211025  0.179615  -0.372286  2.350644  0.454299  -1.033942  6.422928  0.454299  -1.033942  6.422928  -7.737194  -1.436957  9.598376  -10.840069  63.700631  41.872714  -41.666629  -25.922021  90.417985  112.142106  31.832385  -24.920942  10.429115  -20.442224  17.659865  99.865334  24.423835  37.326165  -19.739918  15.880616  -104.057236  86.68581  22.262094  42.173948  9.244031  -1.242472  -0.280368  6.932183  -0.93635  -0.191522  
0.0  101.685394  0.0  -1.806334  -16.970591  -104.466442  27.394576  -22.438679  7.010405  3.367673  2.169466  27.991422  9.418873  3.7984  5.925662  -10.248774  11.529172  -0.739944  6.422841  1.989688  15.717974  16.371233  2.89924  -0.179284  -0.413541  -0.422579  2.392186  -1.170977  -1.11286  6.54638  -1.170977  -1.11286  6.546379  -5.111789  -3.587851  8.512572  -11.650709  60.440844  38.283873  -35.835604  -41.265575  83.662478  110.626892  29.23339  -34.017813  11.482005  -20.433003  19.010546  94.708628  22.408902  39.375757  -18.466577  18.179725  -103.907312  82.677572  25.081535  45.565343  10.593993  -1.290283  -0.194936  7.944748  -0.971438  -0.123867  
0.0  101.685394  0.0  -2.696714  -16.96886  -104.127864  28.13442  -23.520276  6.832106  3.063037  2.063497  27.045266  8.996991  3.955281  6.017213  -9.408228  10.706758  0.382235  5.411797  2.027997  14.120934  16.136286  2.639205  -0.104673  -0.962261  -0.462808  2.208254  -2.670222  -1.175787  6.05395  -2.670221  -1.175787  6.05395  -3.606561  -5.928345  8.71815  -13.186055  58.135884  34.200755  -24.311328  -51.32382  73.35726  108.077891  23.962854  -37.515051  11.810872  -20.865659  21.836163  89.344259  21.492892  41.386831  -17.183739  15.904856  -102.199452  80.623351  30.60706  47.555926  11.557733  -1.730526  0.550358  8.669206  -1.288033  0.445669  
0.0  101.685394  0.0  -3.570289  -16.606531  -103.699174  28.933422  -24.574381  6.394537  2.259755  2.450263  26.310538  8.774115  3.901257  5.931749  -8.801573  9.959044  1.185397  4.211872  2.020866  12.873498  15.984945  2.395648  -0.071643  -1.509829  -0.709045  2.021839  -4.183881  -1.809516  5.569575  -4.183881  -1.809516  5.569575  -2.766653  -6.742667  8.261087  -14.857036  56.219468  30.565532  -9.831154  -54.306221  62.132658  104.558321  21.123753  -34.143966  12.367265  -19.642348  24.045173  84.275335  20.385157  42.769007  -17.291131  11.681697  -101.329467  79.855492  35.267242  47.825164  12.3298  -1.477797  1.402185  9.250283  -1.080583  1.081929  
0.0  101.685394  0.0  -4.230903  -15.802971  -103.353201  29.461203  -25.388891  5.927922  -0.268086  3.115407  24.632516  9.787922  4.087237  6.73501  -8.82115  9.490255  1.745906  3.140571  2.070691  11.927211  15.951187  2.123646  -0.106607  -2.002111  -0.924895  1.858143  -5.542122  -2.370635  5.153657  -5.542121  -2.370635  5.153657  -2.905081  -6.971657  7.754706  -15.423573  53.575368  28.03555  -1.659897  -49.972095  56.708932  98.763564  20.5018  -33.541037  12.139508  -17.820364  25.573329  80.020375  19.001044  43.580824  -17.845141  8.242537  -100.726818  79.220675  38.824467  46.937214  12.70401  -1.319634  2.115109  9.532285  -0.946249  1.614531  
0.0  101.685394  0.0  -4.659311  -14.987889  -103.098994  29.955104  -25.911832  5.468302  -1.509269  3.528234  24.152828  9.806489  4.050957  6.742769  -9.151086  9.253745  2.130322  2.344097  2.166261  11.199649  16.101729  1.825948  -0.165715  -2.417452  -1.147273  1.813373  -6.693758  -2.949118  5.068768  -6.693758  -2.949118  5.068769  -3.600714  -6.665971  7.589853  -13.622177  51.026706  26.58361  -2.158082  -40.489015  57.847261  98.963652  19.274484  -36.117339  11.942735  -15.449616  25.701176  76.30969  17.139385  43.977108  -17.026714  7.977454  -100.407747  78.049166  41.831868  47.661945  12.870156  -0.917809  2.296362  9.656019  -0.640334  1.742486  
0.0  101.685394  0.0  -4.843868  -14.25135  -102.890755  30.252615  -26.058408  5.061954  -2.635955  3.869692  23.777408  9.72503  3.995234  6.688183  -9.807683  9.272083  2.296056  2.115768  2.215856  10.663367  15.965212  1.543401  -0.28401  -2.748264  -1.35548  1.853506  -7.617523  -3.486476  5.217364  -7.617523  -3.486476  5.217364  -3.374904  -7.075029  7.024966  -10.704867  49.6388  27.701314  -5.421252  -34.416934  57.389439  108.606279  16.717482  -33.987151  11.731901  -13.240677  25.003249  73.09349  15.134068  44.160593  -18.187884  9.196571  -100.514494  75.039724  43.752458  45.835765  12.972906  -0.231522  1.982137  9.730539  -0.131628  1.492313  
